<svg xmlns="http://www.w3.org/2000/svg" xmlns:svg="http://www.w3.org/2000/svg" xmlns:xlink="http://www.w3.org/1999/xlink" version="1.0" height="853.9999713897705pt" width="771.3985pt" viewBox="325 -2 779.3985 859.9999713897705" ><defs><style type="text/css">
            @font-face {
                font-family: 'noto_regular';
                src: url('https://app.creately.com/diagram/assets/fonts/noto/noto-regular.woff') format('woff'),
                     url('https://app.creately.com/diagram/assets/fonts/noto/noto-regular.woff2') format('woff2');
                font-weight: normal;
                font-style: normal;
            }
        p {
            margin: 0;
        }
        </style></defs><defs><style>
            span{ display: inline-block; }
        </style></defs><g id="2j74auw26g"><g transform="translate(540 25)"><rect x="0" y="0" width="344.9999928474426" height="829.9999713897705" fill="rgba(255,255,255,1)" stroke="#898989" stroke-width="2" stroke-linecap="round" stroke-linejoin="round"/></g><g transform="translate(689.9999964237213, 35) rotate(0, 22.5, 0)" width="45" height="18"><text text-decoration="none" x="0.5" fill="rgb(84, 84, 84)" font-size="10pt" font-family="noto_regular"  y="17">System</text><text text-decoration="none" x="44.5" fill="#4b4b4b" font-size="10pt" font-family="noto_regular"  y="17"></text></g><g transform="translate(629.9999964237213, 1) rotate(0, 82.5, 19)" width="165" height="19"><text text-decoration="none" x="7.5" fill="rgb(0, 0, 0)" font-size="10pt" font-family="Lato"  y="17">student&#160;</text><text text-decoration="none" x="57.5" fill="rgb(0, 0, 0)" font-size="10pt" font-family="Lato"  y="17">feedback&#160;</text><text text-decoration="none" x="114.5" fill="rgb(0, 0, 0)" font-size="10pt" font-family="Lato"  y="17">system</text><text text-decoration="none" x="157.5" fill="#4b4b4b" font-size="10pt" font-family="noto_regular"  y="17"></text></g></g><g id="27rx9az5gx"><g transform="translate(335 49.99999999999999)"><ellipse cx="20.3985" cy="10.10075" rx="10.19925" ry="10.10075" fill="rgba(255,255,255,1)" stroke="#898989" stroke-width="2" stroke-linecap="round" stroke-linejoin="round"/><path d="M 20.3985,20.2015 L 20.3985,48.483599999999996 L 40.797,80.806 M 20.3985,48.483599999999996 L 0,80.806 M 2.03985,30.30225 L 38.757149999999996,30.30225" fill="none" stroke="#898989" stroke-width="2" stroke-linecap="round" stroke-linejoin="round"/><rect x="0" y="0" width="40.797" height="80.806" fill="rgba(255,255,255,0.01)" stroke="rgba(255,255,255,0.01)" stroke-width="2" stroke-linecap="round" stroke-linejoin="round"/></g><g transform="translate(330.8985, 135.80599999999998) rotate(0, 24.5, 0)" width="49" height="19"><text text-decoration="none" x="1" fill="rgb(0, 0, 0)" font-size="10pt" font-family="Lato"  y="17">student</text><text text-decoration="none" x="48" fill="#4b4b4b" font-size="10pt" font-family="noto_regular"  y="17"></text></g></g><g id="2ochpxy0wv"><g transform="translate(585 34.85000000000001) rotate(-1.8935394529168646e-15)"><ellipse cx="107.50000715255737" cy="24.00000411272049" rx="107.50000715255737" ry="24.00000411272049" fill="rgba(255,255,255,1)" stroke="#898989" stroke-width="2" stroke-linecap="round" stroke-linejoin="round"/></g><g transform="translate(676.5000071525574, 49.3500041127205) rotate(0, 16, 9.5)" width="32" height="19"><text text-decoration="none" x="1.5" fill="rgb(0, 0, 0)" font-size="10pt" font-family="Lato"  y="17">login</text><text text-decoration="none" x="30.5" fill="#4b4b4b" font-size="10pt" font-family="noto_regular"  y="17"></text></g></g><g id="lh68ox2tvx"><g transform="translate(570 100)"><ellipse cx="122.49998998641968" cy="25.000006556510925" rx="122.49998998641968" ry="25.000006556510925" fill="rgba(255,255,255,1)" stroke="#898989" stroke-width="2" stroke-linecap="round" stroke-linejoin="round"/></g><g transform="translate(667.4999899864197, 115.50000655651093) rotate(0, 25, 9.5)" width="50" height="19"><text text-decoration="none" x="2.5" fill="rgb(0, 0, 0)" font-size="10pt" font-family="Lato"  y="17">register</text><text text-decoration="none" x="47.5" fill="#4b4b4b" font-size="10pt" font-family="noto_regular"  y="17"></text></g></g><g id="h21uxiqthb"><g transform="translate(595 161)"><ellipse cx="94.99999976158142" cy="27.499999940395355" rx="94.99999976158142" ry="27.499999940395355" fill="rgba(255,255,255,1)" stroke="#898989" stroke-width="2" stroke-linecap="round" stroke-linejoin="round"/></g><g transform="translate(633.4999997615814, 178.99999994039536) rotate(0, 56.5, 9.5)" width="113" height="19"><text text-decoration="none" x="5" fill="rgb(0, 0, 0)" font-size="10pt" font-family="Lato"  y="17">provide&#160;</text><text text-decoration="none" x="54" fill="rgb(0, 0, 0)" font-size="10pt" font-family="Lato"  y="17">feedback</text><text text-decoration="none" x="108" fill="#4b4b4b" font-size="10pt" font-family="noto_regular"  y="17"></text></g></g><g id="5esl6y4vlr"><g transform="translate(330 375)"><ellipse cx="20.3985" cy="10.10075" rx="10.19925" ry="10.10075" fill="rgba(255,255,255,1)" stroke="#898989" stroke-width="2" stroke-linecap="round" stroke-linejoin="round"/><path d="M 20.3985,20.2015 L 20.3985,48.483599999999996 L 40.797,80.806 M 20.3985,48.483599999999996 L 0,80.806 M 2.03985,30.30225 L 38.757149999999996,30.30225" fill="none" stroke="#898989" stroke-width="2" stroke-linecap="round" stroke-linejoin="round"/><rect x="0" y="0" width="40.797" height="80.806" fill="rgba(255,255,255,0.01)" stroke="rgba(255,255,255,0.01)" stroke-width="2" stroke-linecap="round" stroke-linejoin="round"/></g><g transform="translate(335.3985, 460.806) rotate(0, 15, 0)" width="30" height="19"><text text-decoration="none" x="1" fill="rgb(0, 0, 0)" font-size="10pt" font-family="Lato"  y="17">Staff</text><text text-decoration="none" x="29" fill="#4b4b4b" font-size="10pt" font-family="noto_regular"  y="17"></text></g></g><g id="2hol7mvocx"><g transform="translate(610 270.9)"><ellipse cx="87.5000029206276" cy="19.999999791383743" rx="87.5000029206276" ry="19.999999791383743" fill="rgba(255,255,255,1)" stroke="#898989" stroke-width="2" stroke-linecap="round" stroke-linejoin="round"/></g><g transform="translate(650.0000029206276, 281.3999997913837) rotate(0, 47.5, 9.5)" width="95" height="19"><text text-decoration="none" x="5.5" fill="rgb(0, 0, 0)" font-size="10pt" font-family="Lato"  y="17">view&#160;</text><text text-decoration="none" x="35.5" fill="rgb(0, 0, 0)" font-size="10pt" font-family="Lato"  y="17">feedback</text><text text-decoration="none" x="89.5" fill="#4b4b4b" font-size="10pt" font-family="noto_regular"  y="17"></text></g></g><g id="11ml6e36l6"><g><path d="M 365,90 L 590,65" fill="none" stroke="#a0a0a0" stroke-width="1.5" stroke-linecap="round" stroke-linejoin="round"/></g></g><g id="1pngx9iz53"><g><path d="M 365,90 L 570,125" fill="none" stroke="#a0a0a0" stroke-width="1.5" stroke-linecap="round" stroke-linejoin="round"/></g></g><g id="11wp1vvytb"><g><path d="M 365,90 L 600,180" fill="none" stroke="#a0a0a0" stroke-width="1.5" stroke-linecap="round" stroke-linejoin="round"/></g></g><g id="2lgd8aab30"><g><path d="M 370,405 L 590,65" fill="none" stroke="#a0a0a0" stroke-width="1.5" stroke-linecap="round" stroke-linejoin="round"/></g></g><g id="5d6sllvz8j"><g><path d="M 370,405 L 595,245" fill="none" stroke="#a0a0a0" stroke-width="1.5" stroke-linecap="round" stroke-linejoin="round"/></g></g><g id="1ph8asd9as"><g transform="translate(615 315)"><ellipse cx="80.00000065565109" cy="30.5" rx="80.00000065565109" ry="30.5" fill="rgba(255,255,255,1)" stroke="#898989" stroke-width="2" stroke-linecap="round" stroke-linejoin="round"/></g><g transform="translate(666.5000006556511, 336) rotate(0, 28.5, 9.5)" width="57" height="19"><text text-decoration="none" x="2" fill="rgb(0, 0, 0)" font-size="10pt" font-family="Lato"  y="17">add&#160;</text><text text-decoration="none" x="28" fill="rgb(0, 0, 0)" font-size="10pt" font-family="Lato"  y="17">staff</text><text text-decoration="none" x="55" fill="#4b4b4b" font-size="10pt" font-family="noto_regular"  y="17"></text></g></g><g id="1lq55nv5k5"><g transform="translate(630 380)"><ellipse cx="77.50000351667404" cy="30.5" rx="77.50000351667404" ry="30.5" fill="rgba(255,255,255,1)" stroke="#898989" stroke-width="2" stroke-linecap="round" stroke-linejoin="round"/></g><g transform="translate(666.000003516674, 401) rotate(0, 41.5, 9.5)" width="83" height="19"><text text-decoration="none" x="3.5" fill="rgb(0, 0, 0)" font-size="10pt" font-family="Lato"  y="17">remove&#160;</text><text text-decoration="none" x="52.5" fill="rgb(0, 0, 0)" font-size="10pt" font-family="Lato"  y="17">staff</text><text text-decoration="none" x="79.5" fill="#4b4b4b" font-size="10pt" font-family="noto_regular"  y="17"></text></g></g><g id="302ufibumd"><g transform="translate(640.05 445)"><ellipse cx="70.00001752376556" cy="30.5" rx="70.00001752376556" ry="30.5" fill="rgba(255,255,255,1)" stroke="#898989" stroke-width="2" stroke-linecap="round" stroke-linejoin="round"/></g><g transform="translate(678.0500175237655, 466) rotate(0, 32, 9.5)" width="64" height="19"><text text-decoration="none" x="3.5" fill="rgb(0, 0, 0)" font-size="10pt" font-family="Lato"  y="17">view&#160;</text><text text-decoration="none" x="33.5" fill="rgb(0, 0, 0)" font-size="10pt" font-family="Lato"  y="17">staff</text><text text-decoration="none" x="60.5" fill="#4b4b4b" font-size="10pt" font-family="noto_regular"  y="17"></text></g></g><g id="28at9ykbez"><g transform="translate(645.05 510)"><ellipse cx="67.50000411272049" cy="30.5" rx="67.50000411272049" ry="30.5" fill="rgba(255,255,255,1)" stroke="#898989" stroke-width="2" stroke-linecap="round" stroke-linejoin="round"/></g><g transform="translate(677.0500041127204, 531) rotate(0, 35.5, 9.5)" width="71" height="19"><text text-decoration="none" x="2.5" fill="rgb(0, 0, 0)" font-size="10pt" font-family="Lato"  y="17">add&#160;</text><text text-decoration="none" x="28.5" fill="rgb(0, 0, 0)" font-size="10pt" font-family="Lato"  y="17">course</text><text text-decoration="none" x="68.5" fill="#4b4b4b" font-size="10pt" font-family="noto_regular"  y="17"></text></g></g><g id="1dipevi46x"><g transform="translate(650.05 580)"><ellipse cx="67.50002038478851" cy="30.5" rx="67.50002038478851" ry="30.5" fill="rgba(255,255,255,1)" stroke="#898989" stroke-width="2" stroke-linecap="round" stroke-linejoin="round"/></g><g transform="translate(669.0500203847885, 601) rotate(0, 48.5, 9.5)" width="97" height="19"><text text-decoration="none" x="4" fill="rgb(0, 0, 0)" font-size="10pt" font-family="Lato"  y="17">remove&#160;</text><text text-decoration="none" x="53" fill="rgb(0, 0, 0)" font-size="10pt" font-family="Lato"  y="17">course</text><text text-decoration="none" x="93" fill="#4b4b4b" font-size="10pt" font-family="noto_regular"  y="17"></text></g></g><g id="1oxcviwiz7"><g transform="translate(650.05 645)"><ellipse cx="69.97500193119049" cy="30.5" rx="69.97500193119049" ry="30.5" fill="rgba(255,255,255,1)" stroke="#898989" stroke-width="2" stroke-linecap="round" stroke-linejoin="round"/></g><g transform="translate(682.5250019311904, 666) rotate(0, 37.5, 9.5)" width="75" height="19"><text text-decoration="none" x="3" fill="rgb(0, 0, 0)" font-size="10pt" font-family="Lato"  y="17">add&#160;</text><text text-decoration="none" x="29" fill="rgb(0, 0, 0)" font-size="10pt" font-family="Lato"  y="17">subject</text><text text-decoration="none" x="72" fill="#4b4b4b" font-size="10pt" font-family="noto_regular"  y="17"></text></g></g><g id="b7y7dhgq3p"><g transform="translate(655.05 715)"><ellipse cx="65.00000154972076" cy="30.5" rx="65.00000154972076" ry="30.5" fill="rgba(255,255,255,1)" stroke="#898989" stroke-width="2" stroke-linecap="round" stroke-linejoin="round"/></g><g transform="translate(669.5500015497207, 736) rotate(0, 50.5, 9.5)" width="101" height="19"><text text-decoration="none" x="4.5" fill="rgb(0, 0, 0)" font-size="10pt" font-family="Lato"  y="17">remove&#160;</text><text text-decoration="none" x="53.5" fill="rgb(0, 0, 0)" font-size="10pt" font-family="Lato"  y="17">subject</text><text text-decoration="none" x="96.5" fill="#4b4b4b" font-size="10pt" font-family="noto_regular"  y="17"></text></g></g><g id="w3fyopri7v"><g transform="translate(655.05 780)"><ellipse cx="62.50000441074371" cy="30.5" rx="62.50000441074371" ry="30.5" fill="rgba(255,255,255,1)" stroke="#898989" stroke-width="2" stroke-linecap="round" stroke-linejoin="round"/></g><g transform="translate(697.0500044107437, 801) rotate(0, 20.5, 9.5)" width="41" height="19"><text text-decoration="none" x="1" fill="rgb(0, 0, 0)" font-size="10pt" font-family="Lato"  y="17">logout</text><text text-decoration="none" x="40" fill="#4b4b4b" font-size="10pt" font-family="noto_regular"  y="17"></text></g></g><g id="2fnb71um5h"><g><path d="M 365,90 L 660,800" fill="none" stroke="#a0a0a0" stroke-width="1.5" stroke-linecap="round" stroke-linejoin="round"/></g></g><g id="2t8gadczrf"><g><path d="M 370,405 L 660,800" fill="none" stroke="#a0a0a0" stroke-width="1.5" stroke-linecap="round" stroke-linejoin="round"/></g></g><g id="2k36pi6kes"><g transform="translate(1060 290)"><ellipse cx="20.3985" cy="10.10075" rx="10.19925" ry="10.10075" fill="rgba(255,255,255,1)" stroke="#898989" stroke-width="2" stroke-linecap="round" stroke-linejoin="round"/><path d="M 20.3985,20.2015 L 20.3985,48.483599999999996 L 40.797,80.806 M 20.3985,48.483599999999996 L 0,80.806 M 2.03985,30.30225 L 38.757149999999996,30.30225" fill="none" stroke="#898989" stroke-width="2" stroke-linecap="round" stroke-linejoin="round"/><rect x="0" y="0" width="40.797" height="80.806" fill="rgba(255,255,255,0.01)" stroke="rgba(255,255,255,0.01)" stroke-width="2" stroke-linecap="round" stroke-linejoin="round"/></g><g transform="translate(1059.3985, 375.806) rotate(0, 21, 0)" width="42" height="19"><text text-decoration="none" x="1.5" fill="rgb(0, 0, 0)" font-size="10pt" font-family="Lato"  y="17">Admin</text><text text-decoration="none" x="40.5" fill="#4b4b4b" font-size="10pt" font-family="noto_regular"  y="17"></text></g></g><g id="2kr69joyep"><g><path d="M 1060,325 L 795,65" fill="none" stroke="#a0a0a0" stroke-width="1.5" stroke-linecap="round" stroke-linejoin="round"/></g></g><g id="15smqq355r"><g><path d="M 1060,325 L 775,800" fill="none" stroke="#a0a0a0" stroke-width="1.5" stroke-linecap="round" stroke-linejoin="round"/></g></g><g id="uudw98ba6f"><g><path d="M 1062,320 L 1062,320" fill="none" stroke="#a0a0a0" stroke-width="1.5" stroke-linecap="round" stroke-linejoin="round"/></g></g><g id="2phlcu9qik"><g><path d="M 775,728 L 1060,325" fill="none" stroke="#a0a0a0" stroke-width="1.5" stroke-linecap="round" stroke-linejoin="round"/></g></g><g id="xbi336bd92"><g><path d="M 779,658 L 1060,325" fill="none" stroke="#a0a0a0" stroke-width="1.5" stroke-linecap="round" stroke-linejoin="round"/></g></g><g id="2gl956uolx"><g><path d="M 777.05,593 L 1060,325" fill="none" stroke="#a0a0a0" stroke-width="1.5" stroke-linecap="round" stroke-linejoin="round"/></g></g><g id="su4p5vhquu"><g><path d="M 790.95,335 L 790.95,335" fill="none" stroke="#a0a0a0" stroke-width="1.5" stroke-linecap="round" stroke-linejoin="round"/></g></g><g id="4rrmnit0ou"><g><path d="M 775,340 L 1060,325" fill="none" stroke="#a0a0a0" stroke-width="1.5" stroke-linecap="round" stroke-linejoin="round"/></g></g><g id="7wsose4yzs"><g><path d="M 778.95,397 L 1060,325" fill="none" stroke="#a0a0a0" stroke-width="1.5" stroke-linecap="round" stroke-linejoin="round"/></g></g><g id="5yl7656y98"><g><path d="M 775,465 L 1060,325" fill="none" stroke="#a0a0a0" stroke-width="1.5" stroke-linecap="round" stroke-linejoin="round"/></g></g><g id="2kb40udvps"><g><path d="M 768.05,521 L 1060,325" fill="none" stroke="#a0a0a0" stroke-width="1.5" stroke-linecap="round" stroke-linejoin="round"/></g></g><g id="ybiqg1fu0g"><g transform="translate(595 221.1)"><ellipse cx="92.50000262260437" cy="22.500000447034836" rx="92.50000262260437" ry="22.500000447034836" fill="rgba(255,255,255,1)" stroke="#898989" stroke-width="2" stroke-linecap="round" stroke-linejoin="round"/></g><g transform="translate(631.0000026226044, 234.10000044703486) rotate(0, 56.5, 9.5)" width="113" height="19"><text text-decoration="none" x="4.5" fill="rgb(0, 0, 0)" font-size="10pt" font-family="Lato"  y="17">change&#160;</text><text text-decoration="none" x="50.5" fill="rgb(0, 0, 0)" font-size="10pt" font-family="Lato"  y="17">password</text><text text-decoration="none" x="108.5" fill="#4b4b4b" font-size="10pt" font-family="noto_regular"  y="17"></text></g></g><g id="52h8tmini7"><g><path d="M 369,404 L 610,295" fill="none" stroke="#a0a0a0" stroke-width="1.5" stroke-linecap="round" stroke-linejoin="round"/></g></g><g id="1g8f31eau7"><g><path d="M 366,90 L 595,240" fill="none" stroke="#a0a0a0" stroke-width="1.5" stroke-linecap="round" stroke-linejoin="round"/></g></g></svg>